<svg width="56" height="40" viewBox="0 0 56 40" fill="none" xmlns="http://www.w3.org/2000/svg">
<g id="Group 5">
<path id="&#60;Path&#62;" d="M42.7603 26.5837H7.48873C4.67529 26.5837 2.02735 27.0406 0.372378 29.1797C0.248255 29.3251 0 29.242 0 29.0343V3.11527C0 1.39149 1.38604 0 3.10307 0H42.7603C50.0628 0 56 5.96056 56 13.2918C56 20.6439 50.0628 26.5837 42.7603 26.5837Z" fill="#3300FF"/>
<g id="&#60;Group&#62;">
<path id="&#60;Compound Path&#62;" fill-rule="evenodd" clip-rule="evenodd" d="M7.53003 19.5221V10.1348C7.53003 9.94785 7.65415 9.82324 7.84034 9.82324H8.87469C9.04019 9.82324 9.185 9.94785 9.185 10.0932L9.28843 11.0901H9.32981C9.52289 10.7855 9.74355 10.5294 9.9918 10.3217C10.2538 10.1001 10.5572 9.934 10.902 9.82324C11.233 9.69863 11.5916 9.63632 11.9778 9.63632C12.6673 9.63632 13.2604 9.80247 13.7568 10.1348C14.2671 10.4532 14.6671 10.9032 14.9567 11.4847C15.2325 12.0524 15.3704 12.7031 15.3704 13.437C15.3704 14.1708 15.2325 14.8215 14.9567 15.3892C14.6671 15.9707 14.2671 16.4207 13.7568 16.7391C13.2466 17.0714 12.6397 17.2376 11.9364 17.2376C11.3709 17.2376 10.8813 17.1268 10.4676 16.9053C10.0539 16.6838 9.72287 16.4207 9.47462 16.1161V18.9614C9.47462 19.086 9.41256 19.1898 9.28843 19.2521L7.94377 19.7921C7.7369 19.8752 7.53003 19.7298 7.53003 19.5221ZM11.4192 15.41C11.8192 15.41 12.1639 15.3269 12.4536 15.1607C12.7432 14.9946 12.9707 14.7661 13.1362 14.4754C13.3155 14.1846 13.4052 13.8454 13.4052 13.4577C13.4052 13.0562 13.3155 12.7101 13.1362 12.4193C12.9707 12.1285 12.7432 11.9001 12.4536 11.7339C12.1639 11.5678 11.8192 11.4847 11.4192 11.4847C11.033 11.4847 10.6883 11.5678 10.3848 11.7339C10.0814 11.9001 9.85388 12.1285 9.70218 12.4193C9.53668 12.7101 9.45393 13.0562 9.45393 13.4577C9.45393 13.8454 9.53668 14.1846 9.70218 14.4754C9.85388 14.7661 10.0814 14.9946 10.3848 15.1607C10.6883 15.3269 11.033 15.41 11.4192 15.41Z" fill="#F6F4FF"/>
<path id="&#60;Path&#62;_2" d="M15.8876 9.38724V9.15878C15.8876 9.05494 15.9497 8.9511 16.0324 8.8888L18.7424 7.22732C18.9493 7.10271 19.1976 7.24808 19.1976 7.4973V8.28651C19.1976 8.41112 19.1355 8.51496 19.0114 8.57727L16.3221 9.678C16.1152 9.76107 15.8876 9.61569 15.8876 9.38724Z" fill="#F6F4FF"/>
<path id="&#60;Path&#62;_3" d="M16.3013 16.739V10.8407C16.3013 10.6953 16.3841 10.5915 16.4875 10.5499L17.8322 9.98919C18.0391 9.90612 18.2666 10.0515 18.2666 10.28V16.739C18.2666 16.9259 18.1218 17.0505 17.9563 17.0505H16.6116C16.4461 17.0505 16.3013 16.9259 16.3013 16.739Z" fill="#F6F4FF"/>
<path id="&#60;Compound Path&#62;_2" fill-rule="evenodd" clip-rule="evenodd" d="M22.6109 17.2376C21.9213 17.2376 21.3214 17.0714 20.8111 16.7391C20.3008 16.4207 19.9078 15.9707 19.6319 15.3892C19.3561 14.8215 19.2182 14.1707 19.2182 13.4369C19.2182 12.7031 19.3561 12.0524 19.6319 11.4847C19.9078 10.917 20.3077 10.467 20.8318 10.1347C21.3559 9.80244 21.9627 9.6363 22.6523 9.6363C23.2177 9.6363 23.7073 9.74706 24.121 9.96859C24.5348 10.1901 24.8589 10.4532 25.0933 10.7578V7.85021C25.0933 7.72559 25.1761 7.62175 25.3002 7.55945L26.6449 7.01947C26.8311 6.93639 27.0586 7.08177 27.0586 7.31022V16.7391C27.0586 16.926 26.9345 17.0506 26.7483 17.0506H25.714C25.5485 17.0506 25.4037 16.926 25.4037 16.7807L25.3002 15.7838H25.2381C25.0589 16.0884 24.8382 16.3445 24.5762 16.5522C24.3141 16.7737 24.0245 16.9399 23.7073 17.0506C23.3763 17.1753 23.0108 17.2376 22.6109 17.2376ZM23.1488 15.3892C23.5625 15.3892 23.9142 15.3061 24.2038 15.1399C24.4934 14.9738 24.721 14.7453 24.8865 14.4546C25.0658 14.1638 25.1554 13.8177 25.1554 13.4162C25.1554 13.0285 25.0658 12.6893 24.8865 12.3985C24.721 12.1077 24.4865 11.8793 24.1831 11.7131C23.8935 11.547 23.5487 11.4639 23.1488 11.4639C22.7626 11.4639 22.4247 11.547 22.1351 11.7131C21.8317 11.8931 21.5972 12.1285 21.4317 12.4193C21.2662 12.6962 21.1835 13.0285 21.1835 13.4162C21.1835 13.8038 21.2662 14.1431 21.4317 14.4338C21.5972 14.7384 21.8317 14.9738 22.1351 15.1399C22.4247 15.3061 22.7626 15.3892 23.1488 15.3892Z" fill="#F6F4FF"/>
<path id="&#60;Compound Path&#62;_3" fill-rule="evenodd" clip-rule="evenodd" d="M35.4576 12.8968C35.4576 12.9937 35.4645 13.1045 35.4782 13.2291C35.4782 13.2429 35.4782 13.2637 35.4782 13.2914C35.4782 13.4575 35.3541 13.6029 35.1886 13.6237L30.0582 14.0806C30.1134 14.3713 30.2099 14.6275 30.3479 14.849C30.5271 15.1259 30.7685 15.3336 31.0719 15.4721C31.3615 15.5967 31.6718 15.6451 32.0028 15.6174C32.3614 15.5898 32.651 15.4859 32.8717 15.3059C33.0648 15.1536 33.2165 14.9736 33.3268 14.7659C33.3682 14.6829 33.4509 14.6206 33.5544 14.6206L34.9197 14.4959C35.1473 14.4752 35.3128 14.7036 35.23 14.9113C35.1335 15.2159 34.9887 15.4998 34.7956 15.7628C34.506 16.1643 34.1405 16.4966 33.6992 16.7597C33.2578 17.0089 32.7475 17.1612 32.1683 17.2166C31.4374 17.2858 30.7754 17.1889 30.1824 16.9259C29.5893 16.6628 29.1066 16.2682 28.7343 15.7421C28.3619 15.2021 28.1481 14.5652 28.093 13.8313C28.024 13.0837 28.1205 12.4052 28.3826 11.796C28.6446 11.1868 29.0446 10.6953 29.5824 10.3215C30.1203 9.9338 30.7616 9.71227 31.5063 9.65689C32.2235 9.58766 32.8717 9.68458 33.4509 9.94765C34.0302 10.2107 34.4922 10.5984 34.8369 11.1107C35.1817 11.623 35.3886 12.2183 35.4576 12.8968ZM33.4302 12.5022C33.3613 12.1006 33.1613 11.7891 32.8303 11.5676C32.4993 11.3461 32.1062 11.2561 31.6511 11.2976C31.3201 11.3114 31.0167 11.4014 30.7409 11.5676C30.4789 11.7199 30.2789 11.9414 30.141 12.2322C30.0582 12.3983 30.01 12.5783 29.9962 12.7722L33.4302 12.5022Z" fill="#F6F4FF"/>
<path id="&#60;Compound Path&#62;_4" d="M36.4299 16.7391V7.31022C36.4299 7.08177 36.6574 6.93639 36.8643 7.01947L38.209 7.58022C38.3124 7.62175 38.3951 7.7256 38.3951 7.87098V16.7391C38.3951 16.926 38.2503 17.0506 38.0848 17.0506H36.7402C36.5747 17.0506 36.4299 16.926 36.4299 16.7391Z" fill="#F6F4FF"/>
<path id="&#60;Compound Path&#62;_5" fill-rule="evenodd" clip-rule="evenodd" d="M43.1118 17.2375C42.4222 17.2375 41.7947 17.0713 41.2293 16.739C40.6776 16.4206 40.2363 15.9775 39.9053 15.4099C39.5743 14.8422 39.4088 14.1845 39.4088 13.4369C39.4088 12.6892 39.5743 12.0315 39.9053 11.4639C40.2363 10.8962 40.6845 10.4462 41.25 10.1139C41.8016 9.79545 42.4291 9.63623 43.1325 9.63623C43.8359 9.63623 44.4634 9.79545 45.015 10.1139C45.5805 10.4462 46.0218 10.8962 46.339 11.4639C46.67 12.0315 46.8355 12.6892 46.8355 13.4369C46.8355 14.1845 46.67 14.8422 46.339 15.4099C46.0218 15.9775 45.5805 16.4206 45.015 16.739C44.4496 17.0713 43.8152 17.2375 43.1118 17.2375ZM43.1118 15.3476C43.429 15.3476 43.7117 15.2783 43.96 15.1399C44.222 15.0014 44.4358 14.7937 44.6013 14.5168C44.753 14.2261 44.8288 13.8661 44.8288 13.4369C44.8288 13.0076 44.753 12.6477 44.6013 12.3569C44.4358 12.08 44.222 11.8723 43.96 11.7338C43.7117 11.5954 43.4359 11.5262 43.1325 11.5262C42.8291 11.5262 42.5464 11.5954 42.2843 11.7338C42.0223 11.8723 41.8085 12.08 41.643 12.3569C41.4913 12.6477 41.4155 13.0076 41.4155 13.4369C41.4155 13.8661 41.4913 14.2261 41.643 14.5168C41.8085 14.7937 42.0154 15.0014 42.2636 15.1399C42.5257 15.2783 42.8084 15.3476 43.1118 15.3476Z" fill="#F6F4FF"/>
</g>
<path id="&#60;Path&#62;_4" d="M11.3365 34.3094C11.3365 31.1526 8.79202 28.6188 5.66827 28.6188C2.54452 28.6188 0 31.1526 0 34.3094C0 37.4454 2.54452 39.9999 5.66827 39.9999C8.79202 39.9999 11.3365 37.4454 11.3365 34.3094Z" fill="#3300FF"/>
</g>
</svg>
